# xmcd
# 
# Track frame offsets:
#   300
#   15412
#   32272
#   49224
#   64085
# 
# Disc length: 1102 seconds
# 
# Revision: 0
# Processed by: cddbd v1.5.2PL0 Copyright (c) Steve Scherf et al.
# Submitted via: Synapstar 1.0 
# 
DISCID=34044a05
DTITLE=Various Artist - Karaoke Mix 10-17-10
DYEAR=1900
DGENRE=Country
TTITLE0=Radney Foster - Just Call Me Lonesome
TTITLE1=Eli Young Band - When It Rains
TTITLE2=Zac Brown Band - Chicken Fried
TTITLE3=Jake Owen - Don't Think I Can't Love You
TTITLE4=Sugarland - Stuck Like Glue
EXTD=MediaType: Karaoke CD+G Producer: Chartbuster
EXTT0=
EXTT1=
EXTT2=
EXTT3=
EXTT4=
PLAYORDER=
